<?xml version="1.0" encoding="UTF-8"?><svg id="Layer_2" xmlns="http://www.w3.org/2000/svg" viewBox="0 0 86.6 54.79"><g id="Front"><path d="M31.13,0c.22,0,.44,0,.66,0,.04,.26,.12,.51,.11,.77-.09,3.37-1.09,6.43-3.21,9.07-.9,1.12-1.94,2.13-2.94,3.23,.19-.08,.36-.17,.53-.23,2.18-.72,4.32-1.69,6.56-2.1,3.38-.62,6.83-.84,10.25-1.25,.61-.07,.72,.18,.68,.7-.11,1.75-.76,3.32-1.62,4.82-.55,.97-1.15,1.9-1.8,2.96,.28-.11,.43-.16,.59-.22,2.16-.84,4.4-1.35,6.71-1.52,3.78-.28,7.55-.04,11.33,.24,.98,.07,.98,.09,.71,1.06-.82,2.88-2.56,5.17-4.85,6.97-3.37,2.63-7.26,4.21-11.42,5.15-.13,.03-.24,.1-.36,.15l.02,.15,9.43,.83c.07-1.88,.9-3.34,1.85-4.71,2.4-3.44,5.81-5.33,9.86-6.14,3.66-.73,7.38-.76,11.09-.79,.04,0,.07,.04,.21,.12-.2,3.3-2.4,5.53-4.4,7.83,1.21,.46,2.39,.88,3.56,1.36,4.27,1.76,7.83,4.72,11.93,6.97-.2,.27-.36,.56-.59,.78-2.82,2.71-6.26,4.03-10.09,4.25-1.98,.11-4-.04-5.98-.26-3.53-.38-6.96-1.18-10.12-2.9-1.01-.55-2.02-1.11-3.15-1.72,.65,.75,1.23,1.39,1.77,2.07,2.89,3.61,3.76,8.11,5.46,12.25,.18,.45-.11,.63-.5,.61-1.62-.09-3.25-.09-4.84-.36-2.49-.41-4.44-1.9-6.29-3.53-3.16-2.78-5.83-5.91-7.23-9.95-.53-1.53-1.29-3.11,.11-4.7l-7.37-.81c.07,.09,.09,.14,.12,.16,4.38,2.72,7.09,6.63,8.16,11.63,.57,2.65,.87,5.36,1.27,8.05,.16,1.04,.27,2.09,.4,3.13,.06,.49-.17,.79-.68,.71-4.07-.65-7.6-2.4-10.28-5.52-2.2-2.57-3.98-5.47-5.21-8.65-1.3-3.34-2.24-6.75-1.1-10.41l-7.16-1.36c.18,.21,.33,.42,.51,.61,3.38,3.66,4.76,8.09,4.5,12.94-.2,3.62-.89,7.22-1.36,10.82-.07,.53-.37,.72-.88,.58-.23-.07-.47-.13-.68-.23-2.97-1.39-5.49-3.35-7.15-6.21-1.92-3.3-3.07-6.89-3.46-10.68-.37-3.59-.39-7.19,1.69-10.46l-4.84-2.8c.07,.24,.08,.33,.12,.4,1.89,3.88,1.85,7.89,.76,11.94-1.15,4.3-3.66,8-5.53,11.97-.2,.43-.57,.46-.92,.14-.72-.65-1.5-1.24-2.11-1.98-1.68-2.02-3.02-4.26-3.28-6.91-.23-2.22-.12-4.47-.17-6.71-.04-1.72,.2-3.41,.7-5.06,.93-3.04,1.89-6.05,4.47-8.18,.03-.02,.03-.08,.06-.17-1.75-1.62-3.05-3.6-4.06-5.76-.66-1.42-1.12-2.93-1.66-4.4v-1.71c.13-.57,.24-1.15,.4-1.71,.05-.18,.21-.42,.36-.46,.77-.22,1.38,.27,1.34,1.05-.01,.2-.03,.39-.08,.59-.24,1.09-.19,2.16,.16,3.24,1.08,3.33,3.04,6.1,5.47,8.57,.02,.02,.08,0,.07,0,.14-1.14,.18-2.28,.42-3.38,.78-3.51,2.91-6.13,5.63-8.34,3.12-2.54,6.78-3.88,10.63-4.82C26.65,1.17,28.89,.57,31.13,0Zm-9.66,16.09c-3.52,2.28-7.32,3.66-11.54,3.85l-.02,.2,7.4,4.58c.34-3.47,2.1-6.11,4.16-8.63Zm12.22,6.85c-3.47,1.87-7.17,2.93-11.02,3.56v.19l8.87,2c-.21-2.37,1.2-3.95,2.15-5.75Zm21.47,11.4c-1.01-1.35-1.86-1.87-2.62-1.62l2.62,1.62Z"/></g></svg>